<svg width="24" height="26" viewBox="0 0 35 26" fill="none"
                            xmlns="http://www.w3.org/2000/svg">
                            <path
                                d="M23.6682 14.7021L21.4747 12.7445C21.3356 12.6242 21.3128 12.4212 21.4062 12.2686L22.4998 10.6228C22.3974 10.4129 22.3016 10.1896 22.2258 9.95984C22.15 9.73003 22.0942 9.49365 22.0483 9.25397L20.1903 8.58167C20.0244 8.51451 19.9219 8.33782 19.9622 8.15835L20.5608 5.27995C20.6011 5.10048 20.7608 4.98133 20.9401 4.98866L22.9058 5.11585C23.1725 4.71769 23.4856 4.35962 23.8551 4.03836L23.5047 2.1044C23.4819 1.93466 23.5886 1.75544 23.7582 1.69953L26.5502 0.7787C26.7197 0.722792 26.9121 0.803354 26.9981 0.963346L27.867 2.7263C28.3451 2.76802 28.8197 2.86628 29.271 3.02766L30.7754 1.75601C30.9151 1.64344 31.1144 1.64419 31.2536 1.76447L33.4471 3.72203C33.5862 3.84231 33.6089 4.04531 33.5156 4.19797L32.422 5.84373C32.5244 6.05368 32.6202 6.27691 32.696 6.50672C32.7718 6.73652 32.8276 6.97291 32.8735 7.21258L34.7315 7.88489C34.8974 7.95205 34.9999 8.12873 34.9596 8.30821L34.361 11.1866C34.3207 11.3661 34.161 11.4852 33.9817 11.4779L32.016 11.3507C31.7493 11.7489 31.4362 12.1069 31.0667 12.4282L31.4171 14.3622C31.4399 14.5319 31.3332 14.7111 31.1636 14.767L28.3716 15.6879C28.2021 15.7438 28.0097 15.6632 27.9237 15.5032L27.0548 13.7403C26.5767 13.6985 26.1021 13.6003 25.6508 13.4389L24.1464 14.7105C24.0067 14.8231 23.8074 14.8224 23.6682 14.7021ZM28.12 10.2316C29.2168 9.86985 29.8177 8.67462 29.4552 7.57554C29.0927 6.47646 27.8987 5.87319 26.8018 6.23495C25.705 6.5967 25.1041 7.79193 25.4666 8.89102C25.8291 9.9901 27.0231 10.5934 28.12 10.2316Z"
                                fill="white" />
                            <path
                                d="M17.5747 22.2067L18.2882 21.1516C18.2221 21.0183 18.1527 20.875 18.1033 20.7251C18.0539 20.5752 18.0144 20.4221 17.9982 20.2723L16.807 19.8454C16.7042 19.8017 16.6347 19.6917 16.6616 19.572L17.0483 17.7274C17.0652 17.611 17.1749 17.5416 17.2945 17.5354L18.5497 17.6199C18.7197 17.3645 18.9195 17.1324 19.1625 16.9304L18.9432 15.6954C18.9136 15.5723 18.9869 15.4594 19.0867 15.4265L20.8716 14.8379C20.9813 14.8017 21.1073 14.8487 21.1536 14.9554L21.7119 16.0785C22.0207 16.1096 22.3261 16.164 22.6148 16.2682L23.5733 15.4535C23.6598 15.3806 23.7927 15.3811 23.8855 15.4613L25.2937 16.7141C25.3765 16.7975 25.4061 16.9207 25.3394 17.0203L24.6359 18.0721C24.702 18.2054 24.7614 18.352 24.8109 18.5018C24.8603 18.6517 24.8997 18.8049 24.9259 18.9513L26.1171 19.3783C26.2199 19.4219 26.2894 19.532 26.2625 19.6516L25.8758 21.4963C25.8589 21.6126 25.7492 21.6821 25.6296 21.6883L24.3745 21.6037C24.2044 21.8592 24.0046 22.0913 23.7616 22.2933L23.9809 23.5282C23.9972 23.6447 23.9339 23.7542 23.8242 23.7904L22.0393 24.3791C21.9296 24.4152 21.8035 24.3682 21.7573 24.2616L21.1989 23.1385C20.8901 23.1074 20.5847 23.053 20.3061 22.9455L19.3375 23.7635C19.251 23.8363 19.1182 23.8358 19.0254 23.7556L17.6172 22.5029C17.5277 22.4327 17.518 22.3029 17.5747 22.2067ZM21.9053 20.9557C22.6432 20.7123 23.0537 19.9122 22.8066 19.1629C22.5594 18.4135 21.7634 18.0113 21.0155 18.258C20.2677 18.5046 19.8671 19.3014 20.1142 20.0508C20.3614 20.8002 21.1674 21.1991 21.9053 20.9557Z"
                                fill="white" />
                            <path
                                d="M22.3238 3.14844H15.5L12.4 0H3.1C2.27783 0 1.48933 0.331709 0.907969 0.922156C0.326606 1.5126 0 2.31342 0 3.14844V22.0391C0 22.8741 0.326606 23.6749 0.907969 24.2653C1.48933 24.8558 2.27783 25.1875 3.1 25.1875H18.8545C16.9525 23.7016 15.6025 21.4689 14.9969 18.8906H6.2V15.7422H14.6396C14.6411 14.7118 14.7547 13.6556 14.9901 12.5938H6.2V9.44531H16.0659C17.4574 6.50718 19.7272 4.27671 22.3238 3.14844Z"
                                fill="white" />
                        </svg>
